<mxfile host="app.diagrams.net" agent="Mozilla/5.0 (X11; Linux x86_64) AppleWebKit/537.36 (KHTML, like Gecko) Chrome/131.0.0.0 Safari/537.36" version="26.0.11">
  <diagram name="Page-1" id="3k75hXCMe2Ru0NzEfyMu">
    <mxGraphModel dx="1393" dy="794" grid="1" gridSize="10" guides="1" tooltips="1" connect="1" arrows="1" fold="1" page="1" pageScale="1" pageWidth="850" pageHeight="1100" math="0" shadow="0">
      <root>
        <mxCell id="0" />
        <mxCell id="1" parent="0" />
        <mxCell id="r8dLI9jkAPPnzbs4Vxdc-1" value="X SERVER" style="rounded=0;whiteSpace=wrap;html=1;" vertex="1" parent="1">
          <mxGeometry x="360" y="660" width="125" height="90" as="geometry" />
        </mxCell>
        <mxCell id="r8dLI9jkAPPnzbs4Vxdc-2" value="X CLIENT&lt;div&gt;(BROWSER)&lt;/div&gt;" style="whiteSpace=wrap;html=1;" vertex="1" parent="1">
          <mxGeometry x="280" y="810" width="120" height="60" as="geometry" />
        </mxCell>
        <mxCell id="r8dLI9jkAPPnzbs4Vxdc-3" value="X CLIENT&lt;div&gt;(X TERM)&lt;/div&gt;" style="whiteSpace=wrap;html=1;" vertex="1" parent="1">
          <mxGeometry x="460" y="810" width="120" height="60" as="geometry" />
        </mxCell>
        <mxCell id="r8dLI9jkAPPnzbs4Vxdc-4" style="edgeStyle=orthogonalEdgeStyle;rounded=0;orthogonalLoop=1;jettySize=auto;html=1;exitX=0.25;exitY=1;exitDx=0;exitDy=0;entryX=0.925;entryY=0.083;entryDx=0;entryDy=0;entryPerimeter=0;" edge="1" parent="1" source="r8dLI9jkAPPnzbs4Vxdc-1" target="r8dLI9jkAPPnzbs4Vxdc-2">
          <mxGeometry relative="1" as="geometry" />
        </mxCell>
        <mxCell id="r8dLI9jkAPPnzbs4Vxdc-5" style="edgeStyle=orthogonalEdgeStyle;rounded=0;orthogonalLoop=1;jettySize=auto;html=1;exitX=0.75;exitY=0;exitDx=0;exitDy=0;entryX=0.096;entryY=1.022;entryDx=0;entryDy=0;entryPerimeter=0;" edge="1" parent="1" source="r8dLI9jkAPPnzbs4Vxdc-2" target="r8dLI9jkAPPnzbs4Vxdc-1">
          <mxGeometry relative="1" as="geometry" />
        </mxCell>
        <mxCell id="r8dLI9jkAPPnzbs4Vxdc-6" style="edgeStyle=orthogonalEdgeStyle;rounded=0;orthogonalLoop=1;jettySize=auto;html=1;exitX=1;exitY=1;exitDx=0;exitDy=0;entryX=0.2;entryY=0.067;entryDx=0;entryDy=0;entryPerimeter=0;" edge="1" parent="1" source="r8dLI9jkAPPnzbs4Vxdc-1" target="r8dLI9jkAPPnzbs4Vxdc-3">
          <mxGeometry relative="1" as="geometry" />
        </mxCell>
        <mxCell id="r8dLI9jkAPPnzbs4Vxdc-7" style="edgeStyle=orthogonalEdgeStyle;rounded=0;orthogonalLoop=1;jettySize=auto;html=1;exitX=0;exitY=0;exitDx=0;exitDy=0;entryX=0.816;entryY=1.033;entryDx=0;entryDy=0;entryPerimeter=0;" edge="1" parent="1" source="r8dLI9jkAPPnzbs4Vxdc-3" target="r8dLI9jkAPPnzbs4Vxdc-1">
          <mxGeometry relative="1" as="geometry" />
        </mxCell>
        <mxCell id="r8dLI9jkAPPnzbs4Vxdc-8" value="KEYBOARD" style="whiteSpace=wrap;html=1;" vertex="1" parent="1">
          <mxGeometry x="250" y="540" width="120" height="60" as="geometry" />
        </mxCell>
        <mxCell id="r8dLI9jkAPPnzbs4Vxdc-9" style="edgeStyle=orthogonalEdgeStyle;rounded=0;orthogonalLoop=1;jettySize=auto;html=1;exitX=1;exitY=1;exitDx=0;exitDy=0;entryX=0.08;entryY=0;entryDx=0;entryDy=0;entryPerimeter=0;" edge="1" parent="1" source="r8dLI9jkAPPnzbs4Vxdc-8" target="r8dLI9jkAPPnzbs4Vxdc-1">
          <mxGeometry relative="1" as="geometry" />
        </mxCell>
        <mxCell id="r8dLI9jkAPPnzbs4Vxdc-12" style="edgeStyle=orthogonalEdgeStyle;rounded=0;orthogonalLoop=1;jettySize=auto;html=1;exitX=0.25;exitY=1;exitDx=0;exitDy=0;entryX=0.75;entryY=0;entryDx=0;entryDy=0;" edge="1" parent="1" source="r8dLI9jkAPPnzbs4Vxdc-11" target="r8dLI9jkAPPnzbs4Vxdc-1">
          <mxGeometry relative="1" as="geometry" />
        </mxCell>
        <mxCell id="r8dLI9jkAPPnzbs4Vxdc-11" value="MOUSE" style="whiteSpace=wrap;html=1;" vertex="1" parent="1">
          <mxGeometry x="425" y="540" width="120" height="60" as="geometry" />
        </mxCell>
        <mxCell id="r8dLI9jkAPPnzbs4Vxdc-13" value="SCREEN" style="whiteSpace=wrap;html=1;" vertex="1" parent="1">
          <mxGeometry x="610" y="620" width="120" height="60" as="geometry" />
        </mxCell>
        <mxCell id="r8dLI9jkAPPnzbs4Vxdc-14" style="edgeStyle=orthogonalEdgeStyle;rounded=0;orthogonalLoop=1;jettySize=auto;html=1;exitX=1;exitY=0.5;exitDx=0;exitDy=0;entryX=0.65;entryY=0.983;entryDx=0;entryDy=0;entryPerimeter=0;" edge="1" parent="1" source="r8dLI9jkAPPnzbs4Vxdc-1" target="r8dLI9jkAPPnzbs4Vxdc-13">
          <mxGeometry relative="1" as="geometry" />
        </mxCell>
      </root>
    </mxGraphModel>
  </diagram>
</mxfile>
